<?xml version="1.0" encoding="UTF-8" standalone="no"?>
<!DOCTYPE svg PUBLIC "-//W3C//DTD SVG 1.1//EN"
 "http://www.w3.org/Graphics/SVG/1.1/DTD/svg11.dtd">
<!-- Generated by graphviz version 2.38.0 (20140413.2041)
 -->
<!-- Title: SoundAbstractionZip.Regression.Regression.generate_exists_and_universal_regression_map_dict Pages: 1 -->
<svg width="812pt" height="160pt"
 viewBox="0.00 0.00 812.00 159.50" xmlns="http://www.w3.org/2000/svg" xmlns:xlink="http://www.w3.org/1999/xlink">
<g id="graph0" class="graph" transform="scale(1 1) rotate(0) translate(4 155.5)">
<title>SoundAbstractionZip.Regression.Regression.generate_exists_and_universal_regression_map_dict</title>
<polygon fill="white" stroke="none" points="-4,4 -4,-155.5 808,-155.5 808,4 -4,4"/>
<!-- Node1 -->
<g id="node1" class="node"><title>Node1</title>
<g id="a_node1"><a xlink:title=" ">
<polygon fill="#bfbfbf" stroke="black" points="0,-60.5 0,-101.5 176,-101.5 176,-60.5 0,-60.5"/>
<text text-anchor="start" x="8" y="-89.5" font-family="Helvetica,sans-Serif" font-size="10.00">SoundAbstractionZip.Regression.</text>
<text text-anchor="start" x="8" y="-78.5" font-family="Helvetica,sans-Serif" font-size="10.00">Regression.generate_exists</text>
<text text-anchor="middle" x="88" y="-67.5" font-family="Helvetica,sans-Serif" font-size="10.00">_and_universal_regression_map_dict</text>
</a>
</g>
</g>
<!-- Node2 -->
<g id="node2" class="node"><title>Node2</title>
<g id="a_node2"><a xlink:href="class_sound_abstraction_zip_1_1_regression_1_1_regression.html#aed4e90fab66d4ec965abf7924b9c0b6a" target="_top" xlink:title=" ">
<polygon fill="white" stroke="black" points="409,-121 409,-151 583,-151 583,-121 409,-121"/>
<text text-anchor="start" x="417" y="-139" font-family="Helvetica,sans-Serif" font-size="10.00">SoundAbstractionZip.Regression.</text>
<text text-anchor="middle" x="496" y="-128" font-family="Helvetica,sans-Serif" font-size="10.00">Regression.dump_regression_exists</text>
</a>
</g>
</g>
<!-- Node1&#45;&gt;Node2 -->
<g id="edge1" class="edge"><title>Node1&#45;&gt;Node2</title>
<path fill="none" stroke="midnightblue" d="M165.399,-101.527C180.744,-105.114 196.82,-108.493 212,-111 273.733,-121.195 343.774,-127.425 398.732,-131.116"/>
<polygon fill="midnightblue" stroke="midnightblue" points="398.606,-134.615 408.813,-131.776 399.063,-127.63 398.606,-134.615"/>
</g>
<!-- Node3 -->
<g id="node3" class="node"><title>Node3</title>
<g id="a_node3"><a xlink:href="class_sound_abstraction_zip_1_1_regression_1_1_regression.html#a27c8e7721a121dc942e3ff778a1ba2a7" target="_top" xlink:title=" ">
<polygon fill="white" stroke="black" points="415.5,-0.5 415.5,-41.5 576.5,-41.5 576.5,-0.5 415.5,-0.5"/>
<text text-anchor="start" x="423.5" y="-29.5" font-family="Helvetica,sans-Serif" font-size="10.00">SoundAbstractionZip.Regression.</text>
<text text-anchor="start" x="423.5" y="-18.5" font-family="Helvetica,sans-Serif" font-size="10.00">Regression.dump_regression</text>
<text text-anchor="middle" x="496" y="-7.5" font-family="Helvetica,sans-Serif" font-size="10.00">_universal</text>
</a>
</g>
</g>
<!-- Node1&#45;&gt;Node3 -->
<g id="edge2" class="edge"><title>Node1&#45;&gt;Node3</title>
<path fill="none" stroke="midnightblue" d="M166.422,-60.4516C181.465,-56.9319 197.167,-53.5832 212,-51 276.152,-39.8279 349.258,-32.2078 405.096,-27.4434"/>
<polygon fill="midnightblue" stroke="midnightblue" points="405.642,-30.91 415.315,-26.5868 405.057,-23.9345 405.642,-30.91"/>
</g>
<!-- Node4 -->
<g id="node4" class="node"><title>Node4</title>
<g id="a_node4"><a xlink:href="class_sound_abstraction_zip_1_1_regression_1_1_regression.html#a099b4decb0284be100e3f3a6d311e4fb" target="_top" xlink:title=" ">
<polygon fill="white" stroke="black" points="212,-60.5 212,-101.5 373,-101.5 373,-60.5 212,-60.5"/>
<text text-anchor="start" x="220" y="-89.5" font-family="Helvetica,sans-Serif" font-size="10.00">SoundAbstractionZip.Regression.</text>
<text text-anchor="start" x="220" y="-78.5" font-family="Helvetica,sans-Serif" font-size="10.00">Regression.loop_regression</text>
<text text-anchor="middle" x="292.5" y="-67.5" font-family="Helvetica,sans-Serif" font-size="10.00">_with_all_poss_ssa</text>
</a>
</g>
</g>
<!-- Node1&#45;&gt;Node4 -->
<g id="edge3" class="edge"><title>Node1&#45;&gt;Node4</title>
<path fill="none" stroke="midnightblue" d="M176.053,-81C184.606,-81 193.296,-81 201.873,-81"/>
<polygon fill="midnightblue" stroke="midnightblue" points="201.875,-84.5001 211.875,-81 201.875,-77.5001 201.875,-84.5001"/>
</g>
<!-- Node4&#45;&gt;Node2 -->
<g id="edge4" class="edge"><title>Node4&#45;&gt;Node2</title>
<path fill="none" stroke="midnightblue" d="M368.818,-101.558C388.995,-107.066 410.629,-112.971 430.184,-118.308"/>
<polygon fill="midnightblue" stroke="midnightblue" points="429.331,-121.704 439.9,-120.96 431.175,-114.951 429.331,-121.704"/>
</g>
<!-- Node4&#45;&gt;Node3 -->
<g id="edge5" class="edge"><title>Node4&#45;&gt;Node3</title>
<path fill="none" stroke="midnightblue" d="M362.563,-60.4353C379.865,-55.2832 398.556,-49.7178 416.289,-44.4375"/>
<polygon fill="midnightblue" stroke="midnightblue" points="417.442,-47.7461 426.027,-41.5378 415.444,-41.0372 417.442,-47.7461"/>
</g>
<!-- Node5 -->
<g id="node5" class="node"><title>Node5</title>
<g id="a_node5"><a xlink:href="class_sound_abstraction_zip_1_1_regression_1_1_regression.html#aea0e8e185ec75f4aefb20ff8c86fb0fc" target="_top" xlink:title=" ">
<polygon fill="white" stroke="black" points="415.5,-60.5 415.5,-101.5 576.5,-101.5 576.5,-60.5 415.5,-60.5"/>
<text text-anchor="start" x="423.5" y="-89.5" font-family="Helvetica,sans-Serif" font-size="10.00">SoundAbstractionZip.Regression.</text>
<text text-anchor="start" x="423.5" y="-78.5" font-family="Helvetica,sans-Serif" font-size="10.00">Regression.one_step_regression</text>
<text text-anchor="middle" x="496" y="-67.5" font-family="Helvetica,sans-Serif" font-size="10.00">_with_all_poss_ssa</text>
</a>
</g>
</g>
<!-- Node4&#45;&gt;Node5 -->
<g id="edge6" class="edge"><title>Node4&#45;&gt;Node5</title>
<path fill="none" stroke="midnightblue" d="M373.138,-81C383.642,-81 394.466,-81 405.126,-81"/>
<polygon fill="midnightblue" stroke="midnightblue" points="405.281,-84.5001 415.28,-81 405.28,-77.5001 405.281,-84.5001"/>
</g>
<!-- Node6 -->
<g id="node6" class="node"><title>Node6</title>
<g id="a_node6"><a xlink:href="class_sound_abstraction_zip_1_1_regression_1_1_regression.html#abda5fbb2a8a85139eb632ce885f79f7e" target="_top" xlink:title=" ">
<polygon fill="white" stroke="black" points="619,-90 619,-120 804,-120 804,-90 619,-90"/>
<text text-anchor="start" x="627" y="-108" font-family="Helvetica,sans-Serif" font-size="10.00">SoundAbstractionZip.Regression.</text>
<text text-anchor="middle" x="711.5" y="-97" font-family="Helvetica,sans-Serif" font-size="10.00">Regression.one_step_poss_regression</text>
</a>
</g>
</g>
<!-- Node5&#45;&gt;Node6 -->
<g id="edge7" class="edge"><title>Node5&#45;&gt;Node6</title>
<path fill="none" stroke="midnightblue" d="M576.803,-89.9708C587.215,-91.1412 597.992,-92.3528 608.703,-93.5568"/>
<polygon fill="midnightblue" stroke="midnightblue" points="608.61,-97.0682 618.938,-94.7073 609.392,-90.1121 608.61,-97.0682"/>
</g>
<!-- Node7 -->
<g id="node7" class="node"><title>Node7</title>
<g id="a_node7"><a xlink:href="class_sound_abstraction_zip_1_1_regression_1_1_regression.html#a981ccdf2412ebf86e069a90f53341f1e" target="_top" xlink:title=" ">
<polygon fill="white" stroke="black" points="622,-41 622,-71 801,-71 801,-41 622,-41"/>
<text text-anchor="start" x="630" y="-59" font-family="Helvetica,sans-Serif" font-size="10.00">SoundAbstractionZip.Regression.</text>
<text text-anchor="middle" x="711.5" y="-48" font-family="Helvetica,sans-Serif" font-size="10.00">Regression.one_step_ssa_regression</text>
</a>
</g>
</g>
<!-- Node5&#45;&gt;Node7 -->
<g id="edge8" class="edge"><title>Node5&#45;&gt;Node7</title>
<path fill="none" stroke="midnightblue" d="M576.803,-71.6554C588.162,-70.3253 599.957,-68.9441 611.626,-67.5778"/>
<polygon fill="midnightblue" stroke="midnightblue" points="612.308,-71.0219 621.833,-66.3825 611.494,-64.0694 612.308,-71.0219"/>
</g>
</g>
</svg>
