<?xml version="1.0" encoding="UTF-8" standalone="no"?>
<!DOCTYPE svg PUBLIC "-//W3C//DTD SVG 1.1//EN"
 "http://www.w3.org/Graphics/SVG/1.1/DTD/svg11.dtd">
<!-- Generated by graphviz version 2.38.0 (20140413.2041)
 -->
<!-- Title: SoundAbstractionZip.Regression.Regression.loop_regression_with_all_poss_ssa Pages: 1 -->
<svg width="600pt" height="178pt"
 viewBox="0.00 0.00 600.00 178.00" xmlns="http://www.w3.org/2000/svg" xmlns:xlink="http://www.w3.org/1999/xlink">
<g id="graph0" class="graph" transform="scale(1 1) rotate(0) translate(4 174)">
<title>SoundAbstractionZip.Regression.Regression.loop_regression_with_all_poss_ssa</title>
<polygon fill="white" stroke="none" points="-4,4 -4,-174 596,-174 596,4 -4,4"/>
<!-- Node1 -->
<g id="node1" class="node"><title>Node1</title>
<g id="a_node1"><a xlink:title=" ">
<polygon fill="#bfbfbf" stroke="black" points="0,-79 0,-120 161,-120 161,-79 0,-79"/>
<text text-anchor="start" x="8" y="-108" font-family="Helvetica,sans-Serif" font-size="10.00">SoundAbstractionZip.Regression.</text>
<text text-anchor="start" x="8" y="-97" font-family="Helvetica,sans-Serif" font-size="10.00">Regression.loop_regression</text>
<text text-anchor="middle" x="80.5" y="-86" font-family="Helvetica,sans-Serif" font-size="10.00">_with_all_poss_ssa</text>
</a>
</g>
</g>
<!-- Node2 -->
<g id="node2" class="node"><title>Node2</title>
<g id="a_node2"><a xlink:href="class_sound_abstraction_zip_1_1_regression_1_1_regression.html#aed4e90fab66d4ec965abf7924b9c0b6a" target="_top" xlink:title=" ">
<polygon fill="white" stroke="black" points="197,-139.5 197,-169.5 371,-169.5 371,-139.5 197,-139.5"/>
<text text-anchor="start" x="205" y="-157.5" font-family="Helvetica,sans-Serif" font-size="10.00">SoundAbstractionZip.Regression.</text>
<text text-anchor="middle" x="284" y="-146.5" font-family="Helvetica,sans-Serif" font-size="10.00">Regression.dump_regression_exists</text>
</a>
</g>
</g>
<!-- Node1&#45;&gt;Node2 -->
<g id="edge1" class="edge"><title>Node1&#45;&gt;Node2</title>
<path fill="none" stroke="midnightblue" d="M156.818,-120.058C176.995,-125.566 198.629,-131.471 218.184,-136.808"/>
<polygon fill="midnightblue" stroke="midnightblue" points="217.331,-140.204 227.9,-139.46 219.175,-133.451 217.331,-140.204"/>
</g>
<!-- Node3 -->
<g id="node3" class="node"><title>Node3</title>
<g id="a_node3"><a xlink:href="class_sound_abstraction_zip_1_1_regression_1_1_regression.html#a27c8e7721a121dc942e3ff778a1ba2a7" target="_top" xlink:title=" ">
<polygon fill="white" stroke="black" points="203.5,-79 203.5,-120 364.5,-120 364.5,-79 203.5,-79"/>
<text text-anchor="start" x="211.5" y="-108" font-family="Helvetica,sans-Serif" font-size="10.00">SoundAbstractionZip.Regression.</text>
<text text-anchor="start" x="211.5" y="-97" font-family="Helvetica,sans-Serif" font-size="10.00">Regression.dump_regression</text>
<text text-anchor="middle" x="284" y="-86" font-family="Helvetica,sans-Serif" font-size="10.00">_universal</text>
</a>
</g>
</g>
<!-- Node1&#45;&gt;Node3 -->
<g id="edge2" class="edge"><title>Node1&#45;&gt;Node3</title>
<path fill="none" stroke="midnightblue" d="M161.138,-99.5C171.642,-99.5 182.466,-99.5 193.126,-99.5"/>
<polygon fill="midnightblue" stroke="midnightblue" points="193.281,-103 203.28,-99.5 193.28,-96.0001 193.281,-103"/>
</g>
<!-- Node4 -->
<g id="node4" class="node"><title>Node4</title>
<g id="a_node4"><a xlink:href="class_sound_abstraction_zip_1_1_regression_1_1_regression.html#aea0e8e185ec75f4aefb20ff8c86fb0fc" target="_top" xlink:title=" ">
<polygon fill="white" stroke="black" points="203.5,-19 203.5,-60 364.5,-60 364.5,-19 203.5,-19"/>
<text text-anchor="start" x="211.5" y="-48" font-family="Helvetica,sans-Serif" font-size="10.00">SoundAbstractionZip.Regression.</text>
<text text-anchor="start" x="211.5" y="-37" font-family="Helvetica,sans-Serif" font-size="10.00">Regression.one_step_regression</text>
<text text-anchor="middle" x="284" y="-26" font-family="Helvetica,sans-Serif" font-size="10.00">_with_all_poss_ssa</text>
</a>
</g>
</g>
<!-- Node1&#45;&gt;Node4 -->
<g id="edge3" class="edge"><title>Node1&#45;&gt;Node4</title>
<path fill="none" stroke="midnightblue" d="M150.563,-78.9353C167.865,-73.7832 186.556,-68.2178 204.289,-62.9375"/>
<polygon fill="midnightblue" stroke="midnightblue" points="205.442,-66.2461 214.027,-60.0378 203.444,-59.5372 205.442,-66.2461"/>
</g>
<!-- Node5 -->
<g id="node5" class="node"><title>Node5</title>
<g id="a_node5"><a xlink:href="class_sound_abstraction_zip_1_1_regression_1_1_regression.html#abda5fbb2a8a85139eb632ce885f79f7e" target="_top" xlink:title=" ">
<polygon fill="white" stroke="black" points="407,-49.5 407,-79.5 592,-79.5 592,-49.5 407,-49.5"/>
<text text-anchor="start" x="415" y="-67.5" font-family="Helvetica,sans-Serif" font-size="10.00">SoundAbstractionZip.Regression.</text>
<text text-anchor="middle" x="499.5" y="-56.5" font-family="Helvetica,sans-Serif" font-size="10.00">Regression.one_step_poss_regression</text>
</a>
</g>
</g>
<!-- Node4&#45;&gt;Node5 -->
<g id="edge4" class="edge"><title>Node4&#45;&gt;Node5</title>
<path fill="none" stroke="midnightblue" d="M364.803,-48.8446C375.215,-50.0638 385.992,-51.3258 396.703,-52.58"/>
<polygon fill="midnightblue" stroke="midnightblue" points="396.599,-56.0916 406.938,-53.7785 397.413,-49.1391 396.599,-56.0916"/>
</g>
<!-- Node6 -->
<g id="node6" class="node"><title>Node6</title>
<g id="a_node6"><a xlink:href="class_sound_abstraction_zip_1_1_regression_1_1_regression.html#a981ccdf2412ebf86e069a90f53341f1e" target="_top" xlink:title=" ">
<polygon fill="white" stroke="black" points="410,-0.5 410,-30.5 589,-30.5 589,-0.5 410,-0.5"/>
<text text-anchor="start" x="418" y="-18.5" font-family="Helvetica,sans-Serif" font-size="10.00">SoundAbstractionZip.Regression.</text>
<text text-anchor="middle" x="499.5" y="-7.5" font-family="Helvetica,sans-Serif" font-size="10.00">Regression.one_step_ssa_regression</text>
</a>
</g>
</g>
<!-- Node4&#45;&gt;Node6 -->
<g id="edge5" class="edge"><title>Node4&#45;&gt;Node6</title>
<path fill="none" stroke="midnightblue" d="M364.803,-30.5292C376.162,-29.2522 387.957,-27.9264 399.626,-26.6147"/>
<polygon fill="midnightblue" stroke="midnightblue" points="400.287,-30.0625 409.833,-25.4672 399.505,-23.1063 400.287,-30.0625"/>
</g>
</g>
</svg>
