<?xml version="1.0" encoding="UTF-8" standalone="no"?>
<!DOCTYPE svg PUBLIC "-//W3C//DTD SVG 1.1//EN"
 "http://www.w3.org/Graphics/SVG/1.1/DTD/svg11.dtd">
<!-- Generated by graphviz version 2.38.0 (20140413.2041)
 -->
<!-- Title: SoundAbstractionZip.GologProgramTree.Nested_list2FOLExp.insertConsForSort Pages: 1 -->
<svg width="835pt" height="158pt"
 viewBox="0.00 0.00 835.00 158.00" xmlns="http://www.w3.org/2000/svg" xmlns:xlink="http://www.w3.org/1999/xlink">
<g id="graph0" class="graph" transform="scale(1 1) rotate(0) translate(4 154)">
<title>SoundAbstractionZip.GologProgramTree.Nested_list2FOLExp.insertConsForSort</title>
<polygon fill="white" stroke="none" points="-4,4 -4,-154 831,-154 831,4 -4,4"/>
<!-- Node1 -->
<g id="node1" class="node"><title>Node1</title>
<g id="a_node1"><a xlink:title=" ">
<polygon fill="#bfbfbf" stroke="black" points="0,-11.5 0,-52.5 192,-52.5 192,-11.5 0,-11.5"/>
<text text-anchor="start" x="8" y="-40.5" font-family="Helvetica,sans-Serif" font-size="10.00">SoundAbstractionZip.Golog</text>
<text text-anchor="start" x="8" y="-29.5" font-family="Helvetica,sans-Serif" font-size="10.00">ProgramTree.Nested_list2FOLExp.insert</text>
<text text-anchor="middle" x="96" y="-18.5" font-family="Helvetica,sans-Serif" font-size="10.00">ConsForSort</text>
</a>
</g>
</g>
<!-- Node2 -->
<g id="node2" class="node"><title>Node2</title>
<g id="a_node2"><a xlink:href="class_sound_abstraction_zip_1_1_golog_program_tree_1_1_nested__list2_f_o_l_exp.html#a34d09f94a2ee9bbf3883ec8fc76b8df6" target="_top" xlink:title=" ">
<polygon fill="white" stroke="black" points="228,-11.5 228,-52.5 396,-52.5 396,-11.5 228,-11.5"/>
<text text-anchor="start" x="236" y="-40.5" font-family="Helvetica,sans-Serif" font-size="10.00">SoundAbstractionZip.Golog</text>
<text text-anchor="start" x="236" y="-29.5" font-family="Helvetica,sans-Serif" font-size="10.00">ProgramTree.Nested_list2FOLExp.</text>
<text text-anchor="middle" x="312" y="-18.5" font-family="Helvetica,sans-Serif" font-size="10.00">Nested_list2FOLExpression</text>
</a>
</g>
</g>
<!-- Node1&#45;&gt;Node2 -->
<g id="edge1" class="edge"><title>Node1&#45;&gt;Node2</title>
<path fill="none" stroke="midnightblue" d="M192.11,-25.2872C200.601,-25.2339 209.194,-25.2379 217.671,-25.2992"/>
<polygon fill="midnightblue" stroke="midnightblue" points="217.903,-28.8016 227.938,-25.4024 217.973,-21.802 217.903,-28.8016"/>
</g>
<!-- Node2&#45;&gt;Node1 -->
<g id="edge2" class="edge"><title>Node2&#45;&gt;Node1</title>
<path fill="none" stroke="midnightblue" d="M227.938,-38.5976C219.5,-38.7067 210.853,-38.7572 202.222,-38.7492"/>
<polygon fill="midnightblue" stroke="midnightblue" points="202.122,-35.2489 192.11,-38.7128 202.097,-42.2488 202.122,-35.2489"/>
</g>
<!-- Node2&#45;&gt;Node2 -->
<g id="edge8" class="edge"><title>Node2&#45;&gt;Node2</title>
<path fill="none" stroke="midnightblue" d="M272.301,-52.8644C267.97,-62.5433 281.203,-71 312,-71 331.248,-71 343.635,-67.6966 349.162,-62.8561"/>
<polygon fill="midnightblue" stroke="midnightblue" points="352.63,-63.4183 351.699,-52.8644 345.845,-61.6952 352.63,-63.4183"/>
</g>
<!-- Node3 -->
<g id="node3" class="node"><title>Node3</title>
<g id="a_node3"><a xlink:href="class_sound_abstraction_zip_1_1refinement_map_parser_1_1_p_d_d_l___refinement_map___parser.html#a0ddbb4d2fbd06c18536c7d1cbd22d93c" target="_top" xlink:title=" ">
<polygon fill="white" stroke="black" points="446.5,-78.5 446.5,-119.5 611.5,-119.5 611.5,-78.5 446.5,-78.5"/>
<text text-anchor="start" x="454.5" y="-107.5" font-family="Helvetica,sans-Serif" font-size="10.00">SoundAbstractionZip.refinement</text>
<text text-anchor="start" x="454.5" y="-96.5" font-family="Helvetica,sans-Serif" font-size="10.00">MapParser.PDDL_RefinementMap</text>
<text text-anchor="middle" x="529" y="-85.5" font-family="Helvetica,sans-Serif" font-size="10.00">_Parser.insertConsForSort</text>
</a>
</g>
</g>
<!-- Node2&#45;&gt;Node3 -->
<g id="edge3" class="edge"><title>Node2&#45;&gt;Node3</title>
<path fill="none" stroke="midnightblue" d="M378.968,-52.5575C402.185,-59.7926 428.456,-67.9794 452.404,-75.4423"/>
<polygon fill="midnightblue" stroke="midnightblue" points="451.568,-78.8476 462.157,-78.4813 453.651,-72.1646 451.568,-78.8476"/>
</g>
<!-- Node6 -->
<g id="node6" class="node"><title>Node6</title>
<g id="a_node6"><a xlink:href="class_sound_abstraction_zip_1_1_golog_program_tree_1_1_nested__list2_f_o_l_exp.html#af84fa238c050393ae2246923d6c1546b" target="_top" xlink:title=" ">
<polygon fill="white" stroke="black" points="432,-0.5 432,-41.5 626,-41.5 626,-0.5 432,-0.5"/>
<text text-anchor="start" x="440" y="-29.5" font-family="Helvetica,sans-Serif" font-size="10.00">SoundAbstractionZip.Golog</text>
<text text-anchor="start" x="440" y="-18.5" font-family="Helvetica,sans-Serif" font-size="10.00">ProgramTree.Nested_list2FOLExp.</text>
<text text-anchor="middle" x="529" y="-7.5" font-family="Helvetica,sans-Serif" font-size="10.00">Nested_list2FOLExpressionwithSituation</text>
</a>
</g>
</g>
<!-- Node2&#45;&gt;Node6 -->
<g id="edge9" class="edge"><title>Node2&#45;&gt;Node6</title>
<path fill="none" stroke="midnightblue" d="M396.125,-27.7471C404.533,-27.3169 413.151,-26.876 421.759,-26.4356"/>
<polygon fill="midnightblue" stroke="midnightblue" points="422.037,-29.926 431.845,-25.9196 421.679,-22.9352 422.037,-29.926"/>
</g>
<!-- Node3&#45;&gt;Node1 -->
<g id="edge4" class="edge"><title>Node3&#45;&gt;Node1</title>
<path fill="none" stroke="midnightblue" d="M446.296,-100.131C385.487,-99.4552 300.776,-95.3014 228,-80 202.593,-74.6581 175.496,-65.3746 152.579,-56.3867"/>
<polygon fill="midnightblue" stroke="midnightblue" points="153.614,-53.0314 143.03,-52.5652 151.013,-59.5303 153.614,-53.0314"/>
</g>
<!-- Node3&#45;&gt;Node3 -->
<g id="edge5" class="edge"><title>Node3&#45;&gt;Node3</title>
<path fill="none" stroke="midnightblue" d="M489.668,-119.864C485.378,-129.543 498.488,-138 529,-138 548.07,-138 560.342,-134.697 565.817,-129.856"/>
<polygon fill="midnightblue" stroke="midnightblue" points="569.286,-130.416 568.332,-119.864 562.497,-128.708 569.286,-130.416"/>
</g>
<!-- Node4 -->
<g id="node4" class="node"><title>Node4</title>
<g id="a_node4"><a xlink:href="class_sound_abstraction_zip_1_1refinement_map_parser_1_1_p_d_d_l___refinement_map___parser.html#ab9b14701190ca42e247018e4c71fa78c" target="_top" xlink:title=" ">
<polygon fill="white" stroke="black" points="662,-108.5 662,-149.5 827,-149.5 827,-108.5 662,-108.5"/>
<text text-anchor="start" x="670" y="-137.5" font-family="Helvetica,sans-Serif" font-size="10.00">SoundAbstractionZip.refinement</text>
<text text-anchor="start" x="670" y="-126.5" font-family="Helvetica,sans-Serif" font-size="10.00">MapParser.PDDL_RefinementMap</text>
<text text-anchor="middle" x="744.5" y="-115.5" font-family="Helvetica,sans-Serif" font-size="10.00">_Parser.scan_tokens</text>
</a>
</g>
</g>
<!-- Node3&#45;&gt;Node4 -->
<g id="edge6" class="edge"><title>Node3&#45;&gt;Node4</title>
<path fill="none" stroke="midnightblue" d="M611.629,-110.47C624.762,-112.316 638.433,-114.236 651.783,-116.112"/>
<polygon fill="midnightblue" stroke="midnightblue" points="651.526,-119.611 661.916,-117.536 652.501,-112.679 651.526,-119.611"/>
</g>
<!-- Node5 -->
<g id="node5" class="node"><title>Node5</title>
<g id="a_node5"><a xlink:href="class_sound_abstraction_zip_1_1refinement_map_parser_1_1_p_d_d_l___refinement_map___parser.html#a792589c7b91bed106b434986fcadf463" target="_top" xlink:title=" ">
<polygon fill="white" stroke="black" points="662,-48.5 662,-89.5 827,-89.5 827,-48.5 662,-48.5"/>
<text text-anchor="start" x="670" y="-77.5" font-family="Helvetica,sans-Serif" font-size="10.00">SoundAbstractionZip.refinement</text>
<text text-anchor="start" x="670" y="-66.5" font-family="Helvetica,sans-Serif" font-size="10.00">MapParser.PDDL_RefinementMap</text>
<text text-anchor="middle" x="744.5" y="-55.5" font-family="Helvetica,sans-Serif" font-size="10.00">_Parser.split_predicates</text>
</a>
</g>
</g>
<!-- Node3&#45;&gt;Node5 -->
<g id="edge7" class="edge"><title>Node3&#45;&gt;Node5</title>
<path fill="none" stroke="midnightblue" d="M611.629,-87.5299C624.762,-85.6845 638.433,-83.7635 651.783,-81.8876"/>
<polygon fill="midnightblue" stroke="midnightblue" points="652.501,-85.3213 661.916,-80.4638 651.526,-78.3894 652.501,-85.3213"/>
</g>
<!-- Node6&#45;&gt;Node6 -->
<g id="edge10" class="edge"><title>Node6&#45;&gt;Node6</title>
<path fill="none" stroke="midnightblue" d="M489.668,-41.8644C485.378,-51.5433 498.488,-60 529,-60 548.07,-60 560.342,-56.6966 565.817,-51.8561"/>
<polygon fill="midnightblue" stroke="midnightblue" points="569.286,-52.4162 568.332,-41.8644 562.497,-50.7081 569.286,-52.4162"/>
</g>
</g>
</svg>
