<?xml version="1.0" encoding="UTF-8" standalone="no"?>
<!DOCTYPE svg PUBLIC "-//W3C//DTD SVG 1.1//EN"
 "http://www.w3.org/Graphics/SVG/1.1/DTD/svg11.dtd">
<!-- Generated by graphviz version 2.38.0 (20140413.2041)
 -->
<!-- Title: SoundAbstractionZip.GologProgramTree.Nested_list2FOLExp.insertConsForSort Pages: 1 -->
<svg width="605pt" height="126pt"
 viewBox="0.00 0.00 605.00 126.00" xmlns="http://www.w3.org/2000/svg" xmlns:xlink="http://www.w3.org/1999/xlink">
<g id="graph0" class="graph" transform="scale(1 1) rotate(0) translate(4 122)">
<title>SoundAbstractionZip.GologProgramTree.Nested_list2FOLExp.insertConsForSort</title>
<polygon fill="white" stroke="none" points="-4,4 -4,-122 601,-122 601,4 -4,4"/>
<!-- Node1 -->
<g id="node1" class="node"><title>Node1</title>
<g id="a_node1"><a xlink:title=" ">
<polygon fill="#bfbfbf" stroke="black" points="405,-0.5 405,-41.5 597,-41.5 597,-0.5 405,-0.5"/>
<text text-anchor="start" x="413" y="-29.5" font-family="Helvetica,sans-Serif" font-size="10.00">SoundAbstractionZip.Golog</text>
<text text-anchor="start" x="413" y="-18.5" font-family="Helvetica,sans-Serif" font-size="10.00">ProgramTree.Nested_list2FOLExp.insert</text>
<text text-anchor="middle" x="501" y="-7.5" font-family="Helvetica,sans-Serif" font-size="10.00">ConsForSort</text>
</a>
</g>
</g>
<!-- Node2 -->
<g id="node2" class="node"><title>Node2</title>
<g id="a_node2"><a xlink:href="class_sound_abstraction_zip_1_1refinement_map_parser_1_1_p_d_d_l___refinement_map___parser.html#a0ddbb4d2fbd06c18536c7d1cbd22d93c" target="_top" xlink:title=" ">
<polygon fill="white" stroke="black" points="204,-58.5 204,-99.5 369,-99.5 369,-58.5 204,-58.5"/>
<text text-anchor="start" x="212" y="-87.5" font-family="Helvetica,sans-Serif" font-size="10.00">SoundAbstractionZip.refinement</text>
<text text-anchor="start" x="212" y="-76.5" font-family="Helvetica,sans-Serif" font-size="10.00">MapParser.PDDL_RefinementMap</text>
<text text-anchor="middle" x="286.5" y="-65.5" font-family="Helvetica,sans-Serif" font-size="10.00">_Parser.insertConsForSort</text>
</a>
</g>
</g>
<!-- Node1&#45;&gt;Node2 -->
<g id="edge1" class="edge"><title>Node1&#45;&gt;Node2</title>
<path fill="none" stroke="midnightblue" d="M414.733,-44.273C397.49,-48.9791 379.48,-53.8948 362.618,-58.4973"/>
<polygon fill="midnightblue" stroke="midnightblue" points="416.056,-47.5399 424.781,-41.5303 414.213,-40.7869 416.056,-47.5399"/>
</g>
<!-- Node3 -->
<g id="node3" class="node"><title>Node3</title>
<g id="a_node3"><a xlink:href="class_sound_abstraction_zip_1_1_golog_program_tree_1_1_nested__list2_f_o_l_exp.html#a34d09f94a2ee9bbf3883ec8fc76b8df6" target="_top" xlink:title=" ">
<polygon fill="white" stroke="black" points="0,-0.5 0,-41.5 168,-41.5 168,-0.5 0,-0.5"/>
<text text-anchor="start" x="8" y="-29.5" font-family="Helvetica,sans-Serif" font-size="10.00">SoundAbstractionZip.Golog</text>
<text text-anchor="start" x="8" y="-18.5" font-family="Helvetica,sans-Serif" font-size="10.00">ProgramTree.Nested_list2FOLExp.</text>
<text text-anchor="middle" x="84" y="-7.5" font-family="Helvetica,sans-Serif" font-size="10.00">Nested_list2FOLExpression</text>
</a>
</g>
</g>
<!-- Node1&#45;&gt;Node3 -->
<g id="edge6" class="edge"><title>Node1&#45;&gt;Node3</title>
<path fill="none" stroke="midnightblue" d="M394.584,-15.0359C324.343,-13.8594 233.318,-14.0038 168.181,-15.4693"/>
<polygon fill="midnightblue" stroke="midnightblue" points="394.729,-18.539 404.791,-15.2191 394.855,-11.5401 394.729,-18.539"/>
</g>
<!-- Node2&#45;&gt;Node2 -->
<g id="edge2" class="edge"><title>Node2&#45;&gt;Node2</title>
<path fill="none" stroke="midnightblue" d="M321.253,-109.856C316.085,-114.697 304.5,-118 286.5,-118 257.699,-118 245.324,-109.543 249.374,-99.8644"/>
<polygon fill="midnightblue" stroke="midnightblue" points="324.72,-110.403 323.626,-99.8644 317.91,-108.785 324.72,-110.403"/>
</g>
<!-- Node2&#45;&gt;Node3 -->
<g id="edge3" class="edge"><title>Node2&#45;&gt;Node3</title>
<path fill="none" stroke="midnightblue" d="M204.591,-55.595C188.462,-50.929 171.637,-46.0621 155.876,-41.5027"/>
<polygon fill="midnightblue" stroke="midnightblue" points="203.95,-59.053 214.529,-58.4697 205.896,-52.3287 203.95,-59.053"/>
</g>
<!-- Node3&#45;&gt;Node1 -->
<g id="edge4" class="edge"><title>Node3&#45;&gt;Node1</title>
<path fill="none" stroke="midnightblue" d="M178.39,-26.7456C245.918,-28.0729 336.847,-28.0847 404.791,-26.7809"/>
<polygon fill="midnightblue" stroke="midnightblue" points="178.253,-23.242 168.181,-26.5307 178.106,-30.2405 178.253,-23.242"/>
</g>
<!-- Node3&#45;&gt;Node3 -->
<g id="edge5" class="edge"><title>Node3&#45;&gt;Node3</title>
<path fill="none" stroke="midnightblue" d="M118.753,-51.8561C113.585,-56.6966 102,-60 84,-60 55.1992,-60 42.8239,-51.5433 46.874,-41.8644"/>
<polygon fill="midnightblue" stroke="midnightblue" points="122.22,-52.4026 121.126,-41.8644 115.41,-50.785 122.22,-52.4026"/>
</g>
</g>
</svg>
