<?xml version="1.0" encoding="UTF-8" standalone="no"?>
<!DOCTYPE svg PUBLIC "-//W3C//DTD SVG 1.1//EN"
 "http://www.w3.org/Graphics/SVG/1.1/DTD/svg11.dtd">
<!-- Generated by graphviz version 2.38.0 (20140413.2041)
 -->
<!-- Title: SoundAbstractionZip.Regression.Regression.one_step_ssa_regression Pages: 1 -->
<svg width="793pt" height="50pt"
 viewBox="0.00 0.00 793.00 50.00" xmlns="http://www.w3.org/2000/svg" xmlns:xlink="http://www.w3.org/1999/xlink">
<g id="graph0" class="graph" transform="scale(1 1) rotate(0) translate(4 46)">
<title>SoundAbstractionZip.Regression.Regression.one_step_ssa_regression</title>
<polygon fill="white" stroke="none" points="-4,4 -4,-46 789,-46 789,4 -4,4"/>
<!-- Node1 -->
<g id="node1" class="node"><title>Node1</title>
<g id="a_node1"><a xlink:title=" ">
<polygon fill="#bfbfbf" stroke="black" points="606,-6 606,-36 785,-36 785,-6 606,-6"/>
<text text-anchor="start" x="614" y="-24" font-family="Helvetica,sans-Serif" font-size="10.00">SoundAbstractionZip.Regression.</text>
<text text-anchor="middle" x="695.5" y="-13" font-family="Helvetica,sans-Serif" font-size="10.00">Regression.one_step_ssa_regression</text>
</a>
</g>
</g>
<!-- Node2 -->
<g id="node2" class="node"><title>Node2</title>
<g id="a_node2"><a xlink:href="class_sound_abstraction_zip_1_1_regression_1_1_regression.html#aea0e8e185ec75f4aefb20ff8c86fb0fc" target="_top" xlink:title=" ">
<polygon fill="white" stroke="black" points="409,-0.5 409,-41.5 570,-41.5 570,-0.5 409,-0.5"/>
<text text-anchor="start" x="417" y="-29.5" font-family="Helvetica,sans-Serif" font-size="10.00">SoundAbstractionZip.Regression.</text>
<text text-anchor="start" x="417" y="-18.5" font-family="Helvetica,sans-Serif" font-size="10.00">Regression.one_step_regression</text>
<text text-anchor="middle" x="489.5" y="-7.5" font-family="Helvetica,sans-Serif" font-size="10.00">_with_all_poss_ssa</text>
</a>
</g>
</g>
<!-- Node1&#45;&gt;Node2 -->
<g id="edge1" class="edge"><title>Node1&#45;&gt;Node2</title>
<path fill="none" stroke="midnightblue" d="M595.798,-21C587.156,-21 578.483,-21 570.027,-21"/>
<polygon fill="midnightblue" stroke="midnightblue" points="595.913,-24.5001 605.913,-21 595.913,-17.5001 595.913,-24.5001"/>
</g>
<!-- Node3 -->
<g id="node3" class="node"><title>Node3</title>
<g id="a_node3"><a xlink:href="class_sound_abstraction_zip_1_1_regression_1_1_regression.html#a099b4decb0284be100e3f3a6d311e4fb" target="_top" xlink:title=" ">
<polygon fill="white" stroke="black" points="212,-0.5 212,-41.5 373,-41.5 373,-0.5 212,-0.5"/>
<text text-anchor="start" x="220" y="-29.5" font-family="Helvetica,sans-Serif" font-size="10.00">SoundAbstractionZip.Regression.</text>
<text text-anchor="start" x="220" y="-18.5" font-family="Helvetica,sans-Serif" font-size="10.00">Regression.loop_regression</text>
<text text-anchor="middle" x="292.5" y="-7.5" font-family="Helvetica,sans-Serif" font-size="10.00">_with_all_poss_ssa</text>
</a>
</g>
</g>
<!-- Node2&#45;&gt;Node3 -->
<g id="edge2" class="edge"><title>Node2&#45;&gt;Node3</title>
<path fill="none" stroke="midnightblue" d="M398.883,-21C390.3,-21 381.635,-21 373.157,-21"/>
<polygon fill="midnightblue" stroke="midnightblue" points="398.905,-24.5001 408.905,-21 398.905,-17.5001 398.905,-24.5001"/>
</g>
<!-- Node4 -->
<g id="node4" class="node"><title>Node4</title>
<g id="a_node4"><a xlink:href="class_sound_abstraction_zip_1_1_regression_1_1_regression.html#a0ac100e42164673fd9a79b42106dec31" target="_top" xlink:title=" ">
<polygon fill="white" stroke="black" points="0,-0.5 0,-41.5 176,-41.5 176,-0.5 0,-0.5"/>
<text text-anchor="start" x="8" y="-29.5" font-family="Helvetica,sans-Serif" font-size="10.00">SoundAbstractionZip.Regression.</text>
<text text-anchor="start" x="8" y="-18.5" font-family="Helvetica,sans-Serif" font-size="10.00">Regression.generate_exists</text>
<text text-anchor="middle" x="88" y="-7.5" font-family="Helvetica,sans-Serif" font-size="10.00">_and_universal_regression_map_dict</text>
</a>
</g>
</g>
<!-- Node3&#45;&gt;Node4 -->
<g id="edge3" class="edge"><title>Node3&#45;&gt;Node4</title>
<path fill="none" stroke="midnightblue" d="M201.499,-21C193.032,-21 184.459,-21 176.02,-21"/>
<polygon fill="midnightblue" stroke="midnightblue" points="201.757,-24.5001 211.757,-21 201.757,-17.5001 201.757,-24.5001"/>
</g>
</g>
</svg>
