<?xml version="1.0" encoding="UTF-8" standalone="no"?>
<!DOCTYPE svg PUBLIC "-//W3C//DTD SVG 1.1//EN"
 "http://www.w3.org/Graphics/SVG/1.1/DTD/svg11.dtd">
<!-- Generated by graphviz version 2.38.0 (20140413.2041)
 -->
<!-- Title: SoundAbstractionZip.refinementMapParser.PDDL_RefinementMap_Parser.insertConsForSort Pages: 1 -->
<svg width="835pt" height="219pt"
 viewBox="0.00 0.00 835.00 219.03" xmlns="http://www.w3.org/2000/svg" xmlns:xlink="http://www.w3.org/1999/xlink">
<g id="graph0" class="graph" transform="scale(1 1) rotate(0) translate(4 215.032)">
<title>SoundAbstractionZip.refinementMapParser.PDDL_RefinementMap_Parser.insertConsForSort</title>
<polygon fill="white" stroke="none" points="-4,4 -4,-215.032 831,-215.032 831,4 -4,4"/>
<!-- Node1 -->
<g id="node1" class="node"><title>Node1</title>
<g id="a_node1"><a xlink:title=" ">
<polygon fill="#bfbfbf" stroke="black" points="0,-61.5317 0,-102.532 165,-102.532 165,-61.5317 0,-61.5317"/>
<text text-anchor="start" x="8" y="-90.5317" font-family="Helvetica,sans-Serif" font-size="10.00">SoundAbstractionZip.refinement</text>
<text text-anchor="start" x="8" y="-79.5317" font-family="Helvetica,sans-Serif" font-size="10.00">MapParser.PDDL_RefinementMap</text>
<text text-anchor="middle" x="82.5" y="-68.5317" font-family="Helvetica,sans-Serif" font-size="10.00">_Parser.insertConsForSort</text>
</a>
</g>
</g>
<!-- Node1&#45;&gt;Node1 -->
<g id="edge8" class="edge"><title>Node1&#45;&gt;Node1</title>
<path fill="none" stroke="midnightblue" d="M43.1685,-102.896C38.8778,-112.575 51.9883,-121.032 82.5,-121.032 101.57,-121.032 113.842,-117.728 119.317,-112.888"/>
<polygon fill="midnightblue" stroke="midnightblue" points="122.786,-113.448 121.832,-102.896 115.997,-111.74 122.786,-113.448"/>
</g>
<!-- Node2 -->
<g id="node2" class="node"><title>Node2</title>
<g id="a_node2"><a xlink:href="class_sound_abstraction_zip_1_1_golog_program_tree_1_1_nested__list2_f_o_l_exp.html#a2faed2c94ace76e301a7383a913d1d57" target="_top" xlink:title=" ">
<polygon fill="white" stroke="black" points="201,-151.532 201,-192.532 393,-192.532 393,-151.532 201,-151.532"/>
<text text-anchor="start" x="209" y="-180.532" font-family="Helvetica,sans-Serif" font-size="10.00">SoundAbstractionZip.Golog</text>
<text text-anchor="start" x="209" y="-169.532" font-family="Helvetica,sans-Serif" font-size="10.00">ProgramTree.Nested_list2FOLExp.insert</text>
<text text-anchor="middle" x="297" y="-158.532" font-family="Helvetica,sans-Serif" font-size="10.00">ConsForSort</text>
</a>
</g>
</g>
<!-- Node1&#45;&gt;Node2 -->
<g id="edge1" class="edge"><title>Node1&#45;&gt;Node2</title>
<path fill="none" stroke="midnightblue" d="M119.806,-102.555C142.659,-114.971 173.024,-130.565 201,-142.032 206.051,-144.102 211.301,-146.118 216.623,-148.061"/>
<polygon fill="midnightblue" stroke="midnightblue" points="215.661,-151.433 226.255,-151.477 218,-144.836 215.661,-151.433"/>
</g>
<!-- Node5 -->
<g id="node5" class="node"><title>Node5</title>
<g id="a_node5"><a xlink:href="class_sound_abstraction_zip_1_1refinement_map_parser_1_1_p_d_d_l___refinement_map___parser.html#ab9b14701190ca42e247018e4c71fa78c" target="_top" xlink:title=" ">
<polygon fill="white" stroke="black" points="214.5,-91.5317 214.5,-132.532 379.5,-132.532 379.5,-91.5317 214.5,-91.5317"/>
<text text-anchor="start" x="222.5" y="-120.532" font-family="Helvetica,sans-Serif" font-size="10.00">SoundAbstractionZip.refinement</text>
<text text-anchor="start" x="222.5" y="-109.532" font-family="Helvetica,sans-Serif" font-size="10.00">MapParser.PDDL_RefinementMap</text>
<text text-anchor="middle" x="297" y="-98.5317" font-family="Helvetica,sans-Serif" font-size="10.00">_Parser.scan_tokens</text>
</a>
</g>
</g>
<!-- Node1&#45;&gt;Node5 -->
<g id="edge9" class="edge"><title>Node1&#45;&gt;Node5</title>
<path fill="none" stroke="midnightblue" d="M165.05,-93.5447C177.921,-95.3618 191.304,-97.2511 204.386,-99.0979"/>
<polygon fill="midnightblue" stroke="midnightblue" points="203.926,-102.568 214.317,-100.5 204.904,-95.6363 203.926,-102.568"/>
</g>
<!-- Node6 -->
<g id="node6" class="node"><title>Node6</title>
<g id="a_node6"><a xlink:href="class_sound_abstraction_zip_1_1refinement_map_parser_1_1_p_d_d_l___refinement_map___parser.html#a792589c7b91bed106b434986fcadf463" target="_top" xlink:title=" ">
<polygon fill="white" stroke="black" points="214.5,-31.5317 214.5,-72.5317 379.5,-72.5317 379.5,-31.5317 214.5,-31.5317"/>
<text text-anchor="start" x="222.5" y="-60.5317" font-family="Helvetica,sans-Serif" font-size="10.00">SoundAbstractionZip.refinement</text>
<text text-anchor="start" x="222.5" y="-49.5317" font-family="Helvetica,sans-Serif" font-size="10.00">MapParser.PDDL_RefinementMap</text>
<text text-anchor="middle" x="297" y="-38.5317" font-family="Helvetica,sans-Serif" font-size="10.00">_Parser.split_predicates</text>
</a>
</g>
</g>
<!-- Node1&#45;&gt;Node6 -->
<g id="edge10" class="edge"><title>Node1&#45;&gt;Node6</title>
<path fill="none" stroke="midnightblue" d="M165.05,-70.5187C177.921,-68.7016 191.304,-66.8122 204.386,-64.9655"/>
<polygon fill="midnightblue" stroke="midnightblue" points="204.904,-68.4271 214.317,-63.5634 203.926,-61.4958 204.904,-68.4271"/>
</g>
<!-- Node3 -->
<g id="node3" class="node"><title>Node3</title>
<g id="a_node3"><a xlink:href="class_sound_abstraction_zip_1_1_golog_program_tree_1_1_nested__list2_f_o_l_exp.html#a34d09f94a2ee9bbf3883ec8fc76b8df6" target="_top" xlink:title=" ">
<polygon fill="white" stroke="black" points="429,-151.532 429,-192.532 597,-192.532 597,-151.532 429,-151.532"/>
<text text-anchor="start" x="437" y="-180.532" font-family="Helvetica,sans-Serif" font-size="10.00">SoundAbstractionZip.Golog</text>
<text text-anchor="start" x="437" y="-169.532" font-family="Helvetica,sans-Serif" font-size="10.00">ProgramTree.Nested_list2FOLExp.</text>
<text text-anchor="middle" x="513" y="-158.532" font-family="Helvetica,sans-Serif" font-size="10.00">Nested_list2FOLExpression</text>
</a>
</g>
</g>
<!-- Node2&#45;&gt;Node3 -->
<g id="edge2" class="edge"><title>Node2&#45;&gt;Node3</title>
<path fill="none" stroke="midnightblue" d="M393.11,-165.319C401.601,-165.266 410.194,-165.27 418.671,-165.331"/>
<polygon fill="midnightblue" stroke="midnightblue" points="418.903,-168.833 428.938,-165.434 418.973,-161.834 418.903,-168.833"/>
</g>
<!-- Node3&#45;&gt;Node1 -->
<g id="edge4" class="edge"><title>Node3&#45;&gt;Node1</title>
<path fill="none" stroke="midnightblue" d="M503.054,-151.384C486.87,-117.008 449.121,-49.1458 393,-22.0317 316.164,15.0905 283.967,-2.07438 201,-22.0317 173.206,-28.7173 144.586,-43.1447 122.55,-56.1763"/>
<polygon fill="midnightblue" stroke="midnightblue" points="120.573,-53.2819 113.837,-61.4593 124.203,-59.2676 120.573,-53.2819"/>
</g>
<!-- Node3&#45;&gt;Node2 -->
<g id="edge3" class="edge"><title>Node3&#45;&gt;Node2</title>
<path fill="none" stroke="midnightblue" d="M428.938,-178.629C420.5,-178.738 411.853,-178.789 403.222,-178.781"/>
<polygon fill="midnightblue" stroke="midnightblue" points="403.122,-175.281 393.11,-178.745 403.097,-182.281 403.122,-175.281"/>
</g>
<!-- Node3&#45;&gt;Node3 -->
<g id="edge5" class="edge"><title>Node3&#45;&gt;Node3</title>
<path fill="none" stroke="midnightblue" d="M473.301,-192.896C468.97,-202.575 482.203,-211.032 513,-211.032 532.248,-211.032 544.635,-207.728 550.162,-202.888"/>
<polygon fill="midnightblue" stroke="midnightblue" points="553.63,-203.45 552.699,-192.896 546.845,-201.727 553.63,-203.45"/>
</g>
<!-- Node4 -->
<g id="node4" class="node"><title>Node4</title>
<g id="a_node4"><a xlink:href="class_sound_abstraction_zip_1_1_golog_program_tree_1_1_nested__list2_f_o_l_exp.html#af84fa238c050393ae2246923d6c1546b" target="_top" xlink:title=" ">
<polygon fill="white" stroke="black" points="633,-151.532 633,-192.532 827,-192.532 827,-151.532 633,-151.532"/>
<text text-anchor="start" x="641" y="-180.532" font-family="Helvetica,sans-Serif" font-size="10.00">SoundAbstractionZip.Golog</text>
<text text-anchor="start" x="641" y="-169.532" font-family="Helvetica,sans-Serif" font-size="10.00">ProgramTree.Nested_list2FOLExp.</text>
<text text-anchor="middle" x="730" y="-158.532" font-family="Helvetica,sans-Serif" font-size="10.00">Nested_list2FOLExpressionwithSituation</text>
</a>
</g>
</g>
<!-- Node3&#45;&gt;Node4 -->
<g id="edge6" class="edge"><title>Node3&#45;&gt;Node4</title>
<path fill="none" stroke="midnightblue" d="M597.125,-172.032C605.533,-172.032 614.151,-172.032 622.759,-172.032"/>
<polygon fill="midnightblue" stroke="midnightblue" points="622.845,-175.532 632.845,-172.032 622.845,-168.532 622.845,-175.532"/>
</g>
<!-- Node4&#45;&gt;Node4 -->
<g id="edge7" class="edge"><title>Node4&#45;&gt;Node4</title>
<path fill="none" stroke="midnightblue" d="M690.301,-192.896C685.97,-202.575 699.203,-211.032 730,-211.032 749.248,-211.032 761.635,-207.728 767.162,-202.888"/>
<polygon fill="midnightblue" stroke="midnightblue" points="770.63,-203.45 769.699,-192.896 763.845,-201.727 770.63,-203.45"/>
</g>
</g>
</svg>
