<?xml version="1.0" encoding="UTF-8" standalone="no"?>
<!DOCTYPE svg PUBLIC "-//W3C//DTD SVG 1.1//EN"
 "http://www.w3.org/Graphics/SVG/1.1/DTD/svg11.dtd">
<!-- Generated by graphviz version 2.38.0 (20140413.2041)
 -->
<!-- Title: SoundAbstractionZip.GologProgramTree.Nested_list2FOLExp.Nested_list2FOLExpressionwithSituation Pages: 1 -->
<svg width="835pt" height="93pt"
 viewBox="0.00 0.00 835.00 93.00" xmlns="http://www.w3.org/2000/svg" xmlns:xlink="http://www.w3.org/1999/xlink">
<g id="graph0" class="graph" transform="scale(1 1) rotate(0) translate(4 89)">
<title>SoundAbstractionZip.GologProgramTree.Nested_list2FOLExp.Nested_list2FOLExpressionwithSituation</title>
<polygon fill="white" stroke="none" points="-4,4 -4,-89 831,-89 831,4 -4,4"/>
<!-- Node1 -->
<g id="node1" class="node"><title>Node1</title>
<g id="a_node1"><a xlink:title=" ">
<polygon fill="#bfbfbf" stroke="black" points="633,-25.5 633,-66.5 827,-66.5 827,-25.5 633,-25.5"/>
<text text-anchor="start" x="641" y="-54.5" font-family="Helvetica,sans-Serif" font-size="10.00">SoundAbstractionZip.Golog</text>
<text text-anchor="start" x="641" y="-43.5" font-family="Helvetica,sans-Serif" font-size="10.00">ProgramTree.Nested_list2FOLExp.</text>
<text text-anchor="middle" x="730" y="-32.5" font-family="Helvetica,sans-Serif" font-size="10.00">Nested_list2FOLExpressionwithSituation</text>
</a>
</g>
</g>
<!-- Node1&#45;&gt;Node1 -->
<g id="edge8" class="edge"><title>Node1&#45;&gt;Node1</title>
<path fill="none" stroke="midnightblue" d="M767.162,-76.8561C761.635,-81.6966 749.248,-85 730,-85 699.203,-85 685.97,-76.5433 690.301,-66.8644"/>
<polygon fill="midnightblue" stroke="midnightblue" points="770.63,-77.4183 769.699,-66.8644 763.845,-75.6952 770.63,-77.4183"/>
</g>
<!-- Node2 -->
<g id="node2" class="node"><title>Node2</title>
<g id="a_node2"><a xlink:href="class_sound_abstraction_zip_1_1_golog_program_tree_1_1_nested__list2_f_o_l_exp.html#a34d09f94a2ee9bbf3883ec8fc76b8df6" target="_top" xlink:title=" ">
<polygon fill="white" stroke="black" points="429,-25.5 429,-66.5 597,-66.5 597,-25.5 429,-25.5"/>
<text text-anchor="start" x="437" y="-54.5" font-family="Helvetica,sans-Serif" font-size="10.00">SoundAbstractionZip.Golog</text>
<text text-anchor="start" x="437" y="-43.5" font-family="Helvetica,sans-Serif" font-size="10.00">ProgramTree.Nested_list2FOLExp.</text>
<text text-anchor="middle" x="513" y="-32.5" font-family="Helvetica,sans-Serif" font-size="10.00">Nested_list2FOLExpression</text>
</a>
</g>
</g>
<!-- Node1&#45;&gt;Node2 -->
<g id="edge1" class="edge"><title>Node1&#45;&gt;Node2</title>
<path fill="none" stroke="midnightblue" d="M622.788,-46C614.228,-46 605.658,-46 597.293,-46"/>
<polygon fill="midnightblue" stroke="midnightblue" points="622.819,-49.5001 632.819,-46 622.819,-42.5001 622.819,-49.5001"/>
</g>
<!-- Node2&#45;&gt;Node2 -->
<g id="edge7" class="edge"><title>Node2&#45;&gt;Node2</title>
<path fill="none" stroke="midnightblue" d="M550.162,-76.8561C544.635,-81.6966 532.248,-85 513,-85 482.203,-85 468.97,-76.5433 473.301,-66.8644"/>
<polygon fill="midnightblue" stroke="midnightblue" points="553.63,-77.4183 552.699,-66.8644 546.845,-75.6952 553.63,-77.4183"/>
</g>
<!-- Node3 -->
<g id="node3" class="node"><title>Node3</title>
<g id="a_node3"><a xlink:href="class_sound_abstraction_zip_1_1_golog_program_tree_1_1_nested__list2_f_o_l_exp.html#a2faed2c94ace76e301a7383a913d1d57" target="_top" xlink:title=" ">
<polygon fill="white" stroke="black" points="201,-25.5 201,-66.5 393,-66.5 393,-25.5 201,-25.5"/>
<text text-anchor="start" x="209" y="-54.5" font-family="Helvetica,sans-Serif" font-size="10.00">SoundAbstractionZip.Golog</text>
<text text-anchor="start" x="209" y="-43.5" font-family="Helvetica,sans-Serif" font-size="10.00">ProgramTree.Nested_list2FOLExp.insert</text>
<text text-anchor="middle" x="297" y="-32.5" font-family="Helvetica,sans-Serif" font-size="10.00">ConsForSort</text>
</a>
</g>
</g>
<!-- Node2&#45;&gt;Node3 -->
<g id="edge2" class="edge"><title>Node2&#45;&gt;Node3</title>
<path fill="none" stroke="midnightblue" d="M418.68,-39.2993C410.197,-39.2379 401.596,-39.2339 393.098,-39.2873"/>
<polygon fill="midnightblue" stroke="midnightblue" points="418.921,-42.8018 428.956,-39.4027 418.991,-35.8021 418.921,-42.8018"/>
</g>
<!-- Node3&#45;&gt;Node2 -->
<g id="edge6" class="edge"><title>Node3&#45;&gt;Node2</title>
<path fill="none" stroke="midnightblue" d="M403.218,-52.7492C411.857,-52.7572 420.511,-52.7066 428.956,-52.5973"/>
<polygon fill="midnightblue" stroke="midnightblue" points="403.11,-49.2489 393.098,-52.7127 403.085,-56.2488 403.11,-49.2489"/>
</g>
<!-- Node4 -->
<g id="node4" class="node"><title>Node4</title>
<g id="a_node4"><a xlink:href="class_sound_abstraction_zip_1_1refinement_map_parser_1_1_p_d_d_l___refinement_map___parser.html#a0ddbb4d2fbd06c18536c7d1cbd22d93c" target="_top" xlink:title=" ">
<polygon fill="white" stroke="black" points="0,-0.5 0,-41.5 165,-41.5 165,-0.5 0,-0.5"/>
<text text-anchor="start" x="8" y="-29.5" font-family="Helvetica,sans-Serif" font-size="10.00">SoundAbstractionZip.refinement</text>
<text text-anchor="start" x="8" y="-18.5" font-family="Helvetica,sans-Serif" font-size="10.00">MapParser.PDDL_RefinementMap</text>
<text text-anchor="middle" x="82.5" y="-7.5" font-family="Helvetica,sans-Serif" font-size="10.00">_Parser.insertConsForSort</text>
</a>
</g>
</g>
<!-- Node3&#45;&gt;Node4 -->
<g id="edge3" class="edge"><title>Node3&#45;&gt;Node4</title>
<path fill="none" stroke="midnightblue" d="M190.836,-33.6278C182.216,-32.6136 173.586,-31.5984 165.174,-30.6087"/>
<polygon fill="midnightblue" stroke="midnightblue" points="190.597,-37.1237 200.938,-34.8162 191.415,-30.1717 190.597,-37.1237"/>
</g>
<!-- Node4&#45;&gt;Node2 -->
<g id="edge5" class="edge"><title>Node4&#45;&gt;Node2</title>
<path fill="none" stroke="midnightblue" d="M175.399,-12.8348C237.16,-8.98407 320.254,-6.97156 393,-16 409.281,-18.0206 426.534,-21.5398 442.701,-25.4732"/>
<polygon fill="midnightblue" stroke="midnightblue" points="175.039,-9.3507 165.288,-13.4934 175.494,-16.3359 175.039,-9.3507"/>
</g>
<!-- Node4&#45;&gt;Node4 -->
<g id="edge4" class="edge"><title>Node4&#45;&gt;Node4</title>
<path fill="none" stroke="midnightblue" d="M119.317,-51.8561C113.842,-56.6966 101.57,-60 82.5,-60 51.9883,-60 38.8778,-51.5433 43.1685,-41.8644"/>
<polygon fill="midnightblue" stroke="midnightblue" points="122.786,-52.4162 121.832,-41.8644 115.997,-50.7081 122.786,-52.4162"/>
</g>
</g>
</svg>
