<?xml version="1.0" encoding="UTF-8" standalone="no"?>
<!DOCTYPE svg PUBLIC "-//W3C//DTD SVG 1.1//EN"
 "http://www.w3.org/Graphics/SVG/1.1/DTD/svg11.dtd">
<!-- Generated by graphviz version 2.38.0 (20140413.2041)
 -->
<!-- Title: SoundAbstractionZip.Regression.Regression.one_step_regression_with_all_poss_ssa Pages: 1 -->
<svg width="390pt" height="88pt"
 viewBox="0.00 0.00 390.00 88.00" xmlns="http://www.w3.org/2000/svg" xmlns:xlink="http://www.w3.org/1999/xlink">
<g id="graph0" class="graph" transform="scale(1 1) rotate(0) translate(4 84)">
<title>SoundAbstractionZip.Regression.Regression.one_step_regression_with_all_poss_ssa</title>
<polygon fill="white" stroke="none" points="-4,4 -4,-84 386,-84 386,4 -4,4"/>
<!-- Node1 -->
<g id="node1" class="node"><title>Node1</title>
<g id="a_node1"><a xlink:title=" ">
<polygon fill="#bfbfbf" stroke="black" points="0,-19 0,-60 161,-60 161,-19 0,-19"/>
<text text-anchor="start" x="8" y="-48" font-family="Helvetica,sans-Serif" font-size="10.00">SoundAbstractionZip.Regression.</text>
<text text-anchor="start" x="8" y="-37" font-family="Helvetica,sans-Serif" font-size="10.00">Regression.one_step_regression</text>
<text text-anchor="middle" x="80.5" y="-26" font-family="Helvetica,sans-Serif" font-size="10.00">_with_all_poss_ssa</text>
</a>
</g>
</g>
<!-- Node2 -->
<g id="node2" class="node"><title>Node2</title>
<g id="a_node2"><a xlink:href="class_sound_abstraction_zip_1_1_regression_1_1_regression.html#abda5fbb2a8a85139eb632ce885f79f7e" target="_top" xlink:title=" ">
<polygon fill="white" stroke="black" points="197,-49.5 197,-79.5 382,-79.5 382,-49.5 197,-49.5"/>
<text text-anchor="start" x="205" y="-67.5" font-family="Helvetica,sans-Serif" font-size="10.00">SoundAbstractionZip.Regression.</text>
<text text-anchor="middle" x="289.5" y="-56.5" font-family="Helvetica,sans-Serif" font-size="10.00">Regression.one_step_poss_regression</text>
</a>
</g>
</g>
<!-- Node1&#45;&gt;Node2 -->
<g id="edge1" class="edge"><title>Node1&#45;&gt;Node2</title>
<path fill="none" stroke="midnightblue" d="M161.236,-49.1299C169.585,-50.1383 178.153,-51.1731 186.705,-52.206"/>
<polygon fill="midnightblue" stroke="midnightblue" points="186.376,-55.6916 196.724,-53.4159 187.216,-48.7421 186.376,-55.6916"/>
</g>
<!-- Node3 -->
<g id="node3" class="node"><title>Node3</title>
<g id="a_node3"><a xlink:href="class_sound_abstraction_zip_1_1_regression_1_1_regression.html#a981ccdf2412ebf86e069a90f53341f1e" target="_top" xlink:title=" ">
<polygon fill="white" stroke="black" points="200,-0.5 200,-30.5 379,-30.5 379,-0.5 200,-0.5"/>
<text text-anchor="start" x="208" y="-18.5" font-family="Helvetica,sans-Serif" font-size="10.00">SoundAbstractionZip.Regression.</text>
<text text-anchor="middle" x="289.5" y="-7.5" font-family="Helvetica,sans-Serif" font-size="10.00">Regression.one_step_ssa_regression</text>
</a>
</g>
</g>
<!-- Node1&#45;&gt;Node3 -->
<g id="edge2" class="edge"><title>Node1&#45;&gt;Node3</title>
<path fill="none" stroke="midnightblue" d="M161.236,-30.2553C170.618,-29.1674 180.276,-28.0477 189.879,-26.9344"/>
<polygon fill="midnightblue" stroke="midnightblue" points="190.32,-30.4067 199.851,-25.7782 189.514,-23.4533 190.32,-30.4067"/>
</g>
</g>
</svg>
