<?xml version="1.0" encoding="UTF-8" standalone="no"?>
<!DOCTYPE svg PUBLIC "-//W3C//DTD SVG 1.1//EN"
 "http://www.w3.org/Graphics/SVG/1.1/DTD/svg11.dtd">
<!-- Generated by graphviz version 2.38.0 (20140413.2041)
 -->
<!-- Title: SoundAbstractionZip.GologProgramTree.Nested_list2FOLExp.Nested_list2FOLExpression Pages: 1 -->
<svg width="634pt" height="204pt"
 viewBox="0.00 0.00 634.00 204.00" xmlns="http://www.w3.org/2000/svg" xmlns:xlink="http://www.w3.org/1999/xlink">
<g id="graph0" class="graph" transform="scale(1 1) rotate(0) translate(4 200)">
<title>SoundAbstractionZip.GologProgramTree.Nested_list2FOLExp.Nested_list2FOLExpression</title>
<polygon fill="white" stroke="none" points="-4,4 -4,-200 630,-200 630,4 -4,4"/>
<!-- Node1 -->
<g id="node1" class="node"><title>Node1</title>
<g id="a_node1"><a xlink:title=" ">
<polygon fill="#bfbfbf" stroke="black" points="0,-116.5 0,-157.5 168,-157.5 168,-116.5 0,-116.5"/>
<text text-anchor="start" x="8" y="-145.5" font-family="Helvetica,sans-Serif" font-size="10.00">SoundAbstractionZip.Golog</text>
<text text-anchor="start" x="8" y="-134.5" font-family="Helvetica,sans-Serif" font-size="10.00">ProgramTree.Nested_list2FOLExp.</text>
<text text-anchor="middle" x="84" y="-123.5" font-family="Helvetica,sans-Serif" font-size="10.00">Nested_list2FOLExpression</text>
</a>
</g>
</g>
<!-- Node1&#45;&gt;Node1 -->
<g id="edge8" class="edge"><title>Node1&#45;&gt;Node1</title>
<path fill="none" stroke="midnightblue" d="M44.3009,-157.864C39.9701,-167.543 53.2031,-176 84,-176 103.248,-176 115.635,-172.697 121.162,-167.856"/>
<polygon fill="midnightblue" stroke="midnightblue" points="124.63,-168.418 123.699,-157.864 117.845,-166.695 124.63,-168.418"/>
</g>
<!-- Node2 -->
<g id="node2" class="node"><title>Node2</title>
<g id="a_node2"><a xlink:href="class_sound_abstraction_zip_1_1_golog_program_tree_1_1_nested__list2_f_o_l_exp.html#a2faed2c94ace76e301a7383a913d1d57" target="_top" xlink:title=" ">
<polygon fill="white" stroke="black" points="434,-154.5 434,-195.5 626,-195.5 626,-154.5 434,-154.5"/>
<text text-anchor="start" x="442" y="-183.5" font-family="Helvetica,sans-Serif" font-size="10.00">SoundAbstractionZip.Golog</text>
<text text-anchor="start" x="442" y="-172.5" font-family="Helvetica,sans-Serif" font-size="10.00">ProgramTree.Nested_list2FOLExp.insert</text>
<text text-anchor="middle" x="530" y="-161.5" font-family="Helvetica,sans-Serif" font-size="10.00">ConsForSort</text>
</a>
</g>
</g>
<!-- Node1&#45;&gt;Node2 -->
<g id="edge1" class="edge"><title>Node1&#45;&gt;Node2</title>
<path fill="none" stroke="midnightblue" d="M168.252,-138.72C240.466,-143.269 345.372,-152.1 423.46,-160.122"/>
<polygon fill="midnightblue" stroke="midnightblue" points="423.503,-163.645 433.811,-161.197 424.226,-156.683 423.503,-163.645"/>
</g>
<!-- Node3 -->
<g id="node3" class="node"><title>Node3</title>
<g id="a_node3"><a xlink:href="class_sound_abstraction_zip_1_1refinement_map_parser_1_1_p_d_d_l___refinement_map___parser.html#a0ddbb4d2fbd06c18536c7d1cbd22d93c" target="_top" xlink:title=" ">
<polygon fill="white" stroke="black" points="218.5,-78.5 218.5,-119.5 383.5,-119.5 383.5,-78.5 218.5,-78.5"/>
<text text-anchor="start" x="226.5" y="-107.5" font-family="Helvetica,sans-Serif" font-size="10.00">SoundAbstractionZip.refinement</text>
<text text-anchor="start" x="226.5" y="-96.5" font-family="Helvetica,sans-Serif" font-size="10.00">MapParser.PDDL_RefinementMap</text>
<text text-anchor="middle" x="301" y="-85.5" font-family="Helvetica,sans-Serif" font-size="10.00">_Parser.insertConsForSort</text>
</a>
</g>
</g>
<!-- Node1&#45;&gt;Node3 -->
<g id="edge3" class="edge"><title>Node1&#45;&gt;Node3</title>
<path fill="none" stroke="midnightblue" d="M168.125,-122.308C181.213,-119.995 194.811,-117.592 208.085,-115.245"/>
<polygon fill="midnightblue" stroke="midnightblue" points="208.92,-118.652 218.158,-113.465 207.702,-111.759 208.92,-118.652"/>
</g>
<!-- Node6 -->
<g id="node6" class="node"><title>Node6</title>
<g id="a_node6"><a xlink:href="class_sound_abstraction_zip_1_1_golog_program_tree_1_1_nested__list2_f_o_l_exp.html#af84fa238c050393ae2246923d6c1546b" target="_top" xlink:title=" ">
<polygon fill="white" stroke="black" points="204,-0.5 204,-41.5 398,-41.5 398,-0.5 204,-0.5"/>
<text text-anchor="start" x="212" y="-29.5" font-family="Helvetica,sans-Serif" font-size="10.00">SoundAbstractionZip.Golog</text>
<text text-anchor="start" x="212" y="-18.5" font-family="Helvetica,sans-Serif" font-size="10.00">ProgramTree.Nested_list2FOLExp.</text>
<text text-anchor="middle" x="301" y="-7.5" font-family="Helvetica,sans-Serif" font-size="10.00">Nested_list2FOLExpressionwithSituation</text>
</a>
</g>
</g>
<!-- Node1&#45;&gt;Node6 -->
<g id="edge9" class="edge"><title>Node1&#45;&gt;Node6</title>
<path fill="none" stroke="midnightblue" d="M119.862,-116.4C143.433,-102.641 175.363,-84.3259 204,-69 218.286,-61.3546 233.942,-53.3652 248.39,-46.1474"/>
<polygon fill="midnightblue" stroke="midnightblue" points="250.287,-49.113 257.684,-41.5272 247.171,-42.8449 250.287,-49.113"/>
</g>
<!-- Node2&#45;&gt;Node1 -->
<g id="edge2" class="edge"><title>Node2&#45;&gt;Node1</title>
<path fill="none" stroke="midnightblue" d="M433.811,-172.509C358.404,-167.524 253.629,-158.547 178.631,-150.639"/>
<polygon fill="midnightblue" stroke="midnightblue" points="178.568,-147.112 168.252,-149.531 177.824,-154.073 178.568,-147.112"/>
</g>
<!-- Node3&#45;&gt;Node2 -->
<g id="edge4" class="edge"><title>Node3&#45;&gt;Node2</title>
<path fill="none" stroke="midnightblue" d="M363.429,-119.567C392.576,-129.325 427.571,-141.041 457.864,-151.184"/>
<polygon fill="midnightblue" stroke="midnightblue" points="456.928,-154.561 467.521,-154.417 459.15,-147.923 456.928,-154.561"/>
</g>
<!-- Node3&#45;&gt;Node3 -->
<g id="edge5" class="edge"><title>Node3&#45;&gt;Node3</title>
<path fill="none" stroke="midnightblue" d="M261.301,-119.864C256.97,-129.543 270.203,-138 301,-138 320.248,-138 332.635,-134.697 338.162,-129.856"/>
<polygon fill="midnightblue" stroke="midnightblue" points="341.63,-130.418 340.699,-119.864 334.845,-128.695 341.63,-130.418"/>
</g>
<!-- Node4 -->
<g id="node4" class="node"><title>Node4</title>
<g id="a_node4"><a xlink:href="class_sound_abstraction_zip_1_1refinement_map_parser_1_1_p_d_d_l___refinement_map___parser.html#ab9b14701190ca42e247018e4c71fa78c" target="_top" xlink:title=" ">
<polygon fill="white" stroke="black" points="447.5,-86.5 447.5,-127.5 612.5,-127.5 612.5,-86.5 447.5,-86.5"/>
<text text-anchor="start" x="455.5" y="-115.5" font-family="Helvetica,sans-Serif" font-size="10.00">SoundAbstractionZip.refinement</text>
<text text-anchor="start" x="455.5" y="-104.5" font-family="Helvetica,sans-Serif" font-size="10.00">MapParser.PDDL_RefinementMap</text>
<text text-anchor="middle" x="530" y="-93.5" font-family="Helvetica,sans-Serif" font-size="10.00">_Parser.scan_tokens</text>
</a>
</g>
</g>
<!-- Node3&#45;&gt;Node4 -->
<g id="edge6" class="edge"><title>Node3&#45;&gt;Node4</title>
<path fill="none" stroke="midnightblue" d="M383.632,-101.877C400.951,-102.487 419.347,-103.136 437.021,-103.758"/>
<polygon fill="midnightblue" stroke="midnightblue" points="437.213,-107.267 447.33,-104.122 437.46,-100.272 437.213,-107.267"/>
</g>
<!-- Node5 -->
<g id="node5" class="node"><title>Node5</title>
<g id="a_node5"><a xlink:href="class_sound_abstraction_zip_1_1refinement_map_parser_1_1_p_d_d_l___refinement_map___parser.html#a792589c7b91bed106b434986fcadf463" target="_top" xlink:title=" ">
<polygon fill="white" stroke="black" points="447.5,-26.5 447.5,-67.5 612.5,-67.5 612.5,-26.5 447.5,-26.5"/>
<text text-anchor="start" x="455.5" y="-55.5" font-family="Helvetica,sans-Serif" font-size="10.00">SoundAbstractionZip.refinement</text>
<text text-anchor="start" x="455.5" y="-44.5" font-family="Helvetica,sans-Serif" font-size="10.00">MapParser.PDDL_RefinementMap</text>
<text text-anchor="middle" x="530" y="-33.5" font-family="Helvetica,sans-Serif" font-size="10.00">_Parser.split_predicates</text>
</a>
</g>
</g>
<!-- Node3&#45;&gt;Node5 -->
<g id="edge7" class="edge"><title>Node3&#45;&gt;Node5</title>
<path fill="none" stroke="midnightblue" d="M383.632,-80.3003C401.113,-76.2958 419.691,-72.0399 437.517,-67.9565"/>
<polygon fill="midnightblue" stroke="midnightblue" points="438.364,-71.3531 447.33,-65.7085 436.801,-64.5298 438.364,-71.3531"/>
</g>
<!-- Node6&#45;&gt;Node6 -->
<g id="edge10" class="edge"><title>Node6&#45;&gt;Node6</title>
<path fill="none" stroke="midnightblue" d="M261.301,-41.8644C256.97,-51.5433 270.203,-60 301,-60 320.248,-60 332.635,-56.6966 338.162,-51.8561"/>
<polygon fill="midnightblue" stroke="midnightblue" points="341.63,-52.4183 340.699,-41.8644 334.845,-50.6952 341.63,-52.4183"/>
</g>
</g>
</svg>
