<?xml version="1.0" encoding="UTF-8" standalone="no"?>
<!DOCTYPE svg PUBLIC "-//W3C//DTD SVG 1.1//EN"
 "http://www.w3.org/Graphics/SVG/1.1/DTD/svg11.dtd">
<!-- Generated by graphviz version 2.38.0 (20140413.2041)
 -->
<!-- Title: SoundAbstractionZip.refinementMapParser.PDDL_RefinementMap_Parser.insertConsForSort Pages: 1 -->
<svg width="605pt" height="93pt"
 viewBox="0.00 0.00 605.00 93.00" xmlns="http://www.w3.org/2000/svg" xmlns:xlink="http://www.w3.org/1999/xlink">
<g id="graph0" class="graph" transform="scale(1 1) rotate(0) translate(4 89)">
<title>SoundAbstractionZip.refinementMapParser.PDDL_RefinementMap_Parser.insertConsForSort</title>
<polygon fill="white" stroke="none" points="-4,4 -4,-89 601,-89 601,4 -4,4"/>
<!-- Node1 -->
<g id="node1" class="node"><title>Node1</title>
<g id="a_node1"><a xlink:title=" ">
<polygon fill="#bfbfbf" stroke="black" points="432,-0.5 432,-41.5 597,-41.5 597,-0.5 432,-0.5"/>
<text text-anchor="start" x="440" y="-29.5" font-family="Helvetica,sans-Serif" font-size="10.00">SoundAbstractionZip.refinement</text>
<text text-anchor="start" x="440" y="-18.5" font-family="Helvetica,sans-Serif" font-size="10.00">MapParser.PDDL_RefinementMap</text>
<text text-anchor="middle" x="514.5" y="-7.5" font-family="Helvetica,sans-Serif" font-size="10.00">_Parser.insertConsForSort</text>
</a>
</g>
</g>
<!-- Node1&#45;&gt;Node1 -->
<g id="edge1" class="edge"><title>Node1&#45;&gt;Node1</title>
<path fill="none" stroke="midnightblue" d="M549.253,-51.8561C544.085,-56.6966 532.5,-60 514.5,-60 485.699,-60 473.324,-51.5433 477.374,-41.8644"/>
<polygon fill="midnightblue" stroke="midnightblue" points="552.72,-52.4026 551.626,-41.8644 545.91,-50.785 552.72,-52.4026"/>
</g>
<!-- Node2 -->
<g id="node2" class="node"><title>Node2</title>
<g id="a_node2"><a xlink:href="class_sound_abstraction_zip_1_1_golog_program_tree_1_1_nested__list2_f_o_l_exp.html#a34d09f94a2ee9bbf3883ec8fc76b8df6" target="_top" xlink:title=" ">
<polygon fill="white" stroke="black" points="228,-25.5 228,-66.5 396,-66.5 396,-25.5 228,-25.5"/>
<text text-anchor="start" x="236" y="-54.5" font-family="Helvetica,sans-Serif" font-size="10.00">SoundAbstractionZip.Golog</text>
<text text-anchor="start" x="236" y="-43.5" font-family="Helvetica,sans-Serif" font-size="10.00">ProgramTree.Nested_list2FOLExp.</text>
<text text-anchor="middle" x="312" y="-32.5" font-family="Helvetica,sans-Serif" font-size="10.00">Nested_list2FOLExpression</text>
</a>
</g>
</g>
<!-- Node1&#45;&gt;Node2 -->
<g id="edge2" class="edge"><title>Node1&#45;&gt;Node2</title>
<path fill="none" stroke="midnightblue" d="M421.908,-32.4204C413.308,-33.4928 404.623,-34.5757 396.107,-35.6375"/>
<polygon fill="midnightblue" stroke="midnightblue" points="422.459,-35.879 431.949,-31.1685 421.593,-28.9327 422.459,-35.879"/>
</g>
<!-- Node2&#45;&gt;Node2 -->
<g id="edge6" class="edge"><title>Node2&#45;&gt;Node2</title>
<path fill="none" stroke="midnightblue" d="M346.753,-76.8561C341.585,-81.6966 330,-85 312,-85 283.199,-85 270.824,-76.5433 274.874,-66.8644"/>
<polygon fill="midnightblue" stroke="midnightblue" points="350.22,-77.4026 349.126,-66.8644 343.41,-75.785 350.22,-77.4026"/>
</g>
<!-- Node3 -->
<g id="node3" class="node"><title>Node3</title>
<g id="a_node3"><a xlink:href="class_sound_abstraction_zip_1_1_golog_program_tree_1_1_nested__list2_f_o_l_exp.html#a2faed2c94ace76e301a7383a913d1d57" target="_top" xlink:title=" ">
<polygon fill="white" stroke="black" points="0,-25.5 0,-66.5 192,-66.5 192,-25.5 0,-25.5"/>
<text text-anchor="start" x="8" y="-54.5" font-family="Helvetica,sans-Serif" font-size="10.00">SoundAbstractionZip.Golog</text>
<text text-anchor="start" x="8" y="-43.5" font-family="Helvetica,sans-Serif" font-size="10.00">ProgramTree.Nested_list2FOLExp.insert</text>
<text text-anchor="middle" x="96" y="-32.5" font-family="Helvetica,sans-Serif" font-size="10.00">ConsForSort</text>
</a>
</g>
</g>
<!-- Node2&#45;&gt;Node3 -->
<g id="edge3" class="edge"><title>Node2&#45;&gt;Node3</title>
<path fill="none" stroke="midnightblue" d="M217.68,-39.2993C209.197,-39.2379 200.596,-39.2339 192.098,-39.2873"/>
<polygon fill="midnightblue" stroke="midnightblue" points="217.921,-42.8018 227.956,-39.4027 217.991,-35.8021 217.921,-42.8018"/>
</g>
<!-- Node3&#45;&gt;Node1 -->
<g id="edge4" class="edge"><title>Node3&#45;&gt;Node1</title>
<path fill="none" stroke="midnightblue" d="M183.508,-23.3078C198.256,-20.2695 213.495,-17.6396 228,-16 302.194,-7.61305 321.35,-14.4124 396,-16 407.635,-16.2475 419.915,-16.6326 431.974,-17.0818"/>
<polygon fill="midnightblue" stroke="midnightblue" points="182.439,-19.9571 173.391,-25.4694 183.902,-26.8026 182.439,-19.9571"/>
</g>
<!-- Node3&#45;&gt;Node2 -->
<g id="edge5" class="edge"><title>Node3&#45;&gt;Node2</title>
<path fill="none" stroke="midnightblue" d="M202.218,-52.7492C210.857,-52.7572 219.511,-52.7066 227.956,-52.5973"/>
<polygon fill="midnightblue" stroke="midnightblue" points="202.11,-49.2489 192.098,-52.7127 202.085,-56.2488 202.11,-49.2489"/>
</g>
</g>
</svg>
